Run_30001
nRows=4
nColumns=164

# SIMM Motion File Header:
name Run_30001
datacolumns 164
datarows 4
otherdata 1
range 2.72500000 2.75000000
endheader
time	pelvis_tilt	pelvis_list	pelvis_rotation	pelvis_tx	pelvis_ty	pelvis_tz	hip_flexion_r	hip_adduction_r	hip_rotation_r	knee_angle_r	ankle_angle_r	hip_flexion_l	hip_adduction_l	hip_rotation_l	knee_angle_l	ankle_angle_l	lumbar_extension	lumbar_bending	lumbar_rotation	arm_flex_r	arm_add_r	arm_rot_r	elbow_flex_r	pro_sup_r	arm_flex_l	arm_add_l	arm_rot_l	elbow_flex_l	pro_sup_l	subtalar_angle_r	mtp_angle_r	subtalar_angle_l	mtp_angle_l	wrist_flex_r	wrist_dev_r	wrist_flex_l	wrist_dev_l	LASI_tx	LASI_ty	LASI_tz	RASI_tx	RASI_ty	RASI_tz	LPSI_tx	LPSI_ty	LPSI_tz	RPSI_tx	RPSI_ty	RPSI_tz	RTH1_tx	RTH1_ty	RTH1_tz	RTH2_tx	RTH2_ty	RTH2_tz	RTH3_tx	RTH3_ty	RTH3_tz	LTH1_tx	LTH1_ty	LTH1_tz	LTH2_tx	LTH2_ty	LTH2_tz	LTH3_tx	LTH3_ty	LTH3_tz	RTB1_tx	RTB1_ty	RTB1_tz	RTB2_tx	RTB2_ty	RTB2_tz	RTB3_tx	RTB3_ty	RTB3_tz	LTB1_tx	LTB1_ty	LTB1_tz	LTB2_tx	LTB2_ty	LTB2_tz	LTB3_tx	LTB3_ty	LTB3_tz	RCAL_tx	RCAL_ty	RCAL_tz	RTOE_tx	RTOE_ty	RTOE_tz	RMT5_tx	RMT5_ty	RMT5_tz	LCAL_tx	LCAL_ty	LCAL_tz	LTOE_tx	LTOE_ty	LTOE_tz	LMT5_tx	LMT5_ty	LMT5_tz	LACR_tx	LACR_ty	LACR_tz	RACR_tx	RACR_ty	RACR_tz	CLAV_tx	CLAV_ty	CLAV_tz	C7_tx	C7_ty	C7_tz	RUA1_tx	RUA1_ty	RUA1_tz	RUA2_tx	RUA2_ty	RUA2_tz	RUA3_tx	RUA3_ty	RUA3_tz	RLEL_tx	RLEL_ty	RLEL_tz	RMEL_tx	RMEL_ty	RMEL_tz	LUA1_tx	LUA1_ty	LUA1_tz	LUA2_tx	LUA2_ty	LUA2_tz	LUA3_tx	LUA3_ty	LUA3_tz	LLEL_tx	LLEL_ty	LLEL_tz	LMEL_tx	LMEL_ty	LMEL_tz	RFAsuperior_tx	RFAsuperior_ty	RFAsuperior_tz	RFAradius_tx	RFAradius_ty	RFAradius_tz	RFAulna_tx	RFAulna_ty	RFAulna_tz	LFAsuperior_tx	LFAsuperior_ty	LFAsuperior_tz	LFAradius_tx	LFAradius_ty	LFAradius_tz	LFAulna_tx	LFAulna_ty	LFAulna_tz
      2.72500000	     -0.54683741	      2.59919721	      2.99879054	      1.13521057	      1.00958731	     -0.30518753	      0.64137989	      3.71985210	      1.64942863	    -80.31152194	    -12.40089351	     24.74356805	      7.41307094	      0.68538656	    -21.83276764	    -17.30522943	     -9.40635269	     -4.35656151	      8.84127634	    -31.15898541	     -8.36999283	     -9.14329697	     90.94853259	     74.24835100	    -48.18072538	    -18.00925276	     -9.30691449	    110.30571796	     77.89748862	      0.00000000	      0.00000000	      0.00000000	      0.00000000	      0.00000000	      0.00000000	      0.00000000	      0.00000000	      1.13603499	      1.02736938	     -0.41506790	      1.14416845	      1.01369649	     -0.17856083	      0.97165072	      1.05265919	     -0.34394789	      0.97636342	      1.05055627	     -0.24626262	      1.08555658	      0.84804665	     -0.13391261	      1.12786035	      0.69743559	     -0.17944487	      1.05803583	      0.61361868	     -0.19124893	      1.10799767	      0.85787790	     -0.48357963	      1.21539519	      0.78463141	     -0.46858535	      1.18468229	      0.64459079	     -0.44078749	      0.95390163	      0.43082446	     -0.24456859	      0.88448861	      0.47272008	     -0.18764613	      0.77328262	      0.40621962	     -0.23504112	      1.30509859	      0.43312379	     -0.37935338	      1.27115399	      0.32943705	     -0.42054856	      1.30489553	      0.23698603	     -0.35434738	      0.62095354	      0.49676122	     -0.25109426	      0.62543190	      0.28668842	     -0.26874096	      0.59017123	      0.29789504	     -0.16662601	      1.19141500	      0.11580428	     -0.32993408	      1.39354014	      0.08977360	     -0.29078051	      1.38501744	      0.03950439	     -0.38626756	      1.08189309	      1.48793400	     -0.49359453	      1.15143288	      1.48803165	     -0.14161928	      1.18478184	      1.44024120	     -0.30948788	      1.07836835	      1.52932797	     -0.32011755	      1.12412472	      1.41249449	     -0.08826189	      1.11402266	      1.32170849	     -0.09749326	      1.03098500	      1.34022372	     -0.06776266	      0.99113846	      1.23442522	     -0.03459681	      0.95979220	      1.23511219	     -0.10161280	      1.01671716	      1.44874723	     -0.53726013	      0.95636598	      1.42010417	     -0.48406604	      0.95718711	      1.36222673	     -0.54932721	      0.84297589	      1.30548586	     -0.54951803	      0.83916235	      1.30714053	     -0.47541014	      1.07924068	      1.19316249	     -0.04612739	      1.20727928	      1.08585959	     -0.11585546	      1.16155417	      1.03641866	     -0.10621405	      0.90854215	      1.25904179	     -0.56680658	      1.07012588	      1.15315243	     -0.52996489	      1.02394033	      1.10334855	     -0.53159525
      2.73333300	     -0.29650437	      2.69998759	      3.02856339	      1.13492137	      1.00255828	     -0.30447846	      2.44303995	      3.20464781	      0.86987790	    -84.56284964	    -11.22337734	     24.36093388	      7.73975806	      1.34592851	    -24.69415441	    -13.41367098	     -9.70718159	     -4.74872779	      8.19206903	    -31.64862106	     -8.18356677	     -8.84732120	     88.62456325	     72.99896370	    -46.94812010	    -18.29961140	     -8.62000487	    110.17759946	     77.61781907	      0.00000000	      0.00000000	      0.00000000	      0.00000000	      0.00000000	      0.00000000	      0.00000000	      0.00000000	      1.13598485	      1.01980971	     -0.41464949	      1.14460210	      1.00749482	     -0.17752965	      0.97152590	      1.04501243	     -0.34335672	      0.97614085	      1.04268880	     -0.24561928	      1.08777087	      0.84077684	     -0.13289862	      1.13488109	      0.69119515	     -0.17579183	      1.06796435	      0.60572788	     -0.19020836	      1.10839682	      0.85095827	     -0.48030657	      1.21584406	      0.78088312	     -0.46612979	      1.18442947	      0.63895745	     -0.44055682	      0.96708884	      0.42740562	     -0.24117963	      0.89866102	      0.47298530	     -0.18592387	      0.78545622	      0.41007107	     -0.23307241	      1.29811259	      0.42188860	     -0.37759551	      1.25935291	      0.31971039	     -0.41790737	      1.28637290	      0.22598037	     -0.35132519	      0.63559522	      0.50592703	     -0.25213301	      0.63549625	      0.29538943	     -0.26572521	      0.60042105	      0.30932418	     -0.16380193	      1.16648930	      0.10810106	     -0.32829282	      1.36919498	      0.08211576	     -0.28802002	      1.36221381	      0.03567787	     -0.38559379	      1.08323765	      1.47941591	     -0.49530631	      1.15022777	      1.48085366	     -0.14207433	      1.18487423	      1.43262814	     -0.30980385	      1.07837352	      1.52204577	     -0.32162377	      1.12159979	      1.40544200	     -0.08890722	      1.11005017	      1.31506930	     -0.09828686	      1.02738637	      1.33450999	     -0.06898942	      0.98555807	      1.23002701	     -0.03598451	      0.95532666	      1.23089616	     -0.10294681	      1.01918845	      1.43750006	     -0.53991553	      0.95715920	      1.40904108	     -0.48863154	      0.96105954	      1.34943947	     -0.55244001	      0.84792417	      1.29139965	     -0.55381512	      0.84254328	      1.29395274	     -0.47980688	      1.07212696	      1.18504015	     -0.04559984	      1.19623651	      1.07030048	     -0.11100776	      1.14733432	      1.02350625	     -0.10239607	      0.91430754	      1.24576511	     -0.56983247	      1.07722463	      1.14366326	     -0.52894666	      1.03206597	      1.09288049	     -0.53071474
      2.74166700	     -0.05370436	      2.68327360	      3.05006378	      1.13433728	      0.99495959	     -0.30401521	      4.35404515	      2.75837639	      0.17197563	    -88.70196229	    -10.01357976	     24.05814376	      8.05560700	      1.93941192	    -28.00848137	     -7.94701358	    -10.00879740	     -4.99264467	      7.49468041	    -32.11490033	     -8.10733363	     -8.50791244	     86.23392732	     71.90450396	    -45.59332824	    -18.49634098	     -7.87012568	    109.96189063	     77.39268751	      0.00000000	      0.00000000	      0.00000000	      0.00000000	      0.00000000	      0.00000000	      0.00000000	      0.00000000	      1.13554296	      1.01138180	     -0.41442023	      1.14473372	      1.00119031	     -0.17682988	      0.97089915	      1.03674809	     -0.34314201	      0.97564881	      1.03443898	     -0.24542954	      1.08948908	      0.83279517	     -0.13225776	      1.14236993	      0.68472717	     -0.17217718	      1.07849332	      0.59757758	     -0.18880297	      1.10909062	      0.84294767	     -0.47751637	      1.21596928	      0.77552278	     -0.46264170	      1.18460067	      0.63247212	     -0.44072618	      0.98108776	      0.42379760	     -0.23747578	      0.91363956	      0.47275916	     -0.18385938	      0.79882943	      0.41307443	     -0.23102736	      1.29034551	      0.41003521	     -0.37521026	      1.24552106	      0.31024599	     -0.41425106	      1.26517654	      0.21567214	     -0.34657307	      0.65126322	      0.51362489	     -0.25281138	      0.64736412	      0.30285757	     -0.26296293	      0.61273195	      0.31901238	     -0.16118083	      1.13899202	      0.10042228	     -0.32556842	      1.34305786	      0.07789820	     -0.28527175	      1.33711227	      0.03571248	     -0.38521609	      1.08456987	      1.47061092	     -0.49717682	      1.14859900	      1.47342190	     -0.14240557	      1.18491844	      1.42467902	     -0.31002967	      1.07809560	      1.51425412	     -0.32329882	      1.11865960	      1.39811632	     -0.08958047	      1.10566094	      1.30821415	     -0.09916642	      1.02329956	      1.32853874	     -0.07058008	      0.97980809	      1.22523064	     -0.03751802	      0.95092077	      1.22610600	     -0.10427170	      1.02171781	      1.42560157	     -0.54246978	      0.95810357	      1.39710956	     -0.49330359	      0.96534682	      1.33565300	     -0.55546727	      0.85346415	      1.27652275	     -0.55822889	      0.84641384	      1.27984368	     -0.48440400	      1.06453880	      1.17632260	     -0.04491832	      1.18415873	      1.05429030	     -0.10622301	      1.13218315	      1.01036736	     -0.09857986	      0.92073168	      1.23168415	     -0.57275957	      1.08468352	      1.13343026	     -0.52773249	      1.04063851	      1.08165992	     -0.52965488
      2.75000000	      0.21783953	      2.63851666	      3.07446525	      1.13328146	      0.98699655	     -0.30399704	      6.36065566	      2.27024221	     -0.45218054	    -92.71772316	     -8.87228855	     23.83062042	      8.42911544	      2.26530635	    -31.55739626	     -2.08714184	    -10.39499427	     -5.15682002	      6.71933378	    -32.51759725	     -8.14289979	     -8.16829800	     83.79730211	     70.99985499	    -44.06408292	    -18.56294819	     -7.05565608	    109.64279743	     77.27495699	      0.00000000	      0.00000000	      0.00000000	      0.00000000	      0.00000000	      0.00000000	      0.00000000	      0.00000000	      1.13451503	      1.00251840	     -0.41456892	      1.14427878	      0.99456354	     -0.17684565	      0.96963391	      1.02805167	     -0.34333040	      0.97453746	      1.02579974	     -0.24579062	      1.09096521	      0.82433356	     -0.13213694	      1.15031553	      0.67836085	     -0.16876161	      1.08965845	      0.58944189	     -0.18691907	      1.10938757	      0.83408245	     -0.47585041	      1.21608159	      0.76823940	     -0.45913584	      1.18510251	      0.62493960	     -0.44102631	      0.99593270	      0.42015689	     -0.23371205	      0.92935783	      0.47197230	     -0.18149464	      0.81340673	      0.41516250	     -0.22905373	      1.28158332	      0.39852108	     -0.37141409	      1.23042391	      0.30200682	     -0.40967850	      1.24333933	      0.20717476	     -0.34048884	      0.66792508	      0.51967877	     -0.25309524	      0.66076060	      0.30888914	     -0.26048916	      0.62691926	      0.32673417	     -0.15876204	      1.11123411	      0.09431173	     -0.32177315	      1.31689343	      0.07603997	     -0.28248559	      1.31096123	      0.03776172	     -0.38468609	      1.08594102	      1.46177027	     -0.49923494	      1.14648845	      1.46592799	     -0.14267133	      1.18499709	      1.41655248	     -0.31012858	      1.07763496	      1.50630050	     -0.32509968	      1.11536504	      1.39063969	     -0.09023583	      1.10087378	      1.30117913	     -0.10024091	      1.01881226	      1.32234107	     -0.07246434	      0.97395397	      1.22006742	     -0.03923538	      0.94668695	      1.22068413	     -0.10577894	      1.02428696	      1.41312294	     -0.54494269	      0.95928245	      1.38429315	     -0.49799230	      0.97014496	      1.32101842	     -0.55829103	      0.85969106	      1.26099612	     -0.56265374	      0.85092241	      1.26492140	     -0.48908287	      1.05642867	      1.16707542	     -0.04404456	      1.17111039	      1.03806640	     -0.10146055	      1.11625842	      0.99713025	     -0.09474826	      0.92786362	      1.21693012	     -0.57544205	      1.09258804	      1.12258560	     -0.52623350	      1.04968890	      1.06985425	     -0.52836933
